solid x_min
facet normal -1.0 0.0 0.0
outer loop
vertex -0.5 0.775 1.175
vertex -0.5 0.775 -0.325
vertex -0.5 -0.725 1.175
endloop
endfacet
facet normal -1.0 0.0 0.0
outer loop
vertex -0.5 0.775 -0.325
vertex -0.5 -0.725 -0.325
vertex -0.5 -0.725 1.175
endloop
endfacet
endsolid x_min
solid x_max
facet normal 1.0 0.0 0.0
outer loop
vertex 1.9000001 -0.725 1.175
vertex 1.9000001 0.775 -0.325
vertex 1.9000001 0.775 1.175
endloop
endfacet
facet normal 1.0 0.0 0.0
outer loop
vertex 1.9000001 -0.725 1.175
vertex 1.9000001 -0.725 -0.325
vertex 1.9000001 0.775 -0.325
endloop
endfacet
endsolid x_max
solid y_min
facet normal 0.0 -1.0 0.0
outer loop
vertex -0.5 -0.725 -0.325
vertex 1.9000001 -0.725 -0.325
vertex -0.5 -0.725 1.175
endloop
endfacet
facet normal 0.0 -1.0 0.0
outer loop
vertex -0.5 -0.725 1.175
vertex 1.9000001 -0.725 -0.325
vertex 1.9000001 -0.725 1.175
endloop
endfacet
endsolid y_min
solid y_max
facet normal 0.0 1.0 0.0
outer loop
vertex -0.5 0.775 1.175
vertex 1.9000001 0.775 -0.325
vertex -0.5 0.775 -0.325
endloop
endfacet
facet normal 0.0 1.0 0.0
outer loop
vertex 1.9000001 0.775 1.175
vertex 1.9000001 0.775 -0.325
vertex -0.5 0.775 1.175
endloop
endfacet
endsolid y_max
solid z_min
facet normal 0.0 0.0 -1.0
outer loop
vertex -0.5 -0.725 -0.325
vertex -0.5 0.775 -0.325
vertex 1.9000001 -0.725 -0.325
endloop
endfacet
facet normal 0.0 0.0 -1.0
outer loop
vertex 1.9000001 -0.725 -0.325
vertex -0.5 0.775 -0.325
vertex 1.9000001 0.775 -0.325
endloop
endfacet
endsolid z_min
solid z_max
facet normal 0.0 0.0 1.0
outer loop
vertex 1.9000001 -0.725 1.175
vertex -0.5 0.775 1.175
vertex -0.5 -0.725 1.175
endloop
endfacet
facet normal 0.0 0.0 1.0
outer loop
vertex 1.9000001 0.775 1.175
vertex -0.5 0.775 1.175
vertex 1.9000001 -0.725 1.175
endloop
endfacet
endsolid z_max
